<svg width="256" height="256" viewBox="0 0 256 256" fill="none" xmlns="http://www.w3.org/2000/svg">
<path d="M70.9301 93.8463V148.883L34.9338 127.87C30.0207 125.002 27 119.741 27 114.052V78.7225C27 72.9465 30.1131 67.6189 35.1451 64.7833L123.489 15V64.1813L70.9301 93.8463Z" fill="#006397"/>
<path d="M134.864 64.1813V15L221.075 65.4032C225.983 68.2726 229 73.5307 229 79.2158V118.437L134.864 64.1813Z" fill="#006397"/>
<path d="M27 175.288V137.464L123.489 189.477V241L35.4763 189.996C30.2298 186.956 27 181.351 27 175.288Z" fill="#006397"/>
<path d="M134.864 241V189.477L186.639 160.983V105.166L220.84 124.389C225.88 127.222 229 132.555 229 138.337V176.566C229 182.625 225.775 188.226 220.535 191.268L134.864 241Z" fill="#006397"/>
</svg>
