<svg width="13" height="15" viewBox="0 0 13 15" fill="none" xmlns="http://www.w3.org/2000/svg">
<g clip-path="url(#clip0_51969_516)">
<path d="M6.08929 0.000779994C6.43049 -0.00431301 6.81753 0.016058 6.94994 0.046613C7.08744 0.072076 7.36244 0.133186 7.56105 0.173926C7.76475 0.214666 8.12123 0.321616 8.3504 0.403096C8.58466 0.489666 8.92077 0.642446 9.1041 0.744296C9.28744 0.851246 9.56247 1.03458 9.71517 1.1568C9.86797 1.27902 10.0819 1.47764 10.1889 1.59477C10.2958 1.7068 10.474 1.94106 10.5912 2.10912C10.7083 2.27717 10.8662 2.55727 10.9477 2.73551C11.024 2.90865 11.1361 3.23967 11.1972 3.47393C11.2685 3.76421 11.3092 4.12578 11.3296 4.68088C11.3449 5.11375 11.3245 6.6619 11.2889 8.11838C11.2481 9.57487 11.2176 10.9855 11.2227 11.2504C11.2227 11.6374 11.243 11.7851 11.3347 11.9786C11.3958 12.111 11.5078 12.2791 11.5842 12.3504C11.6657 12.4267 11.8185 12.5286 11.9305 12.5795C12.0426 12.6304 12.231 12.6763 12.3481 12.6763C12.5213 12.6763 12.5671 12.6966 12.5671 12.7679C12.5671 12.8138 12.5264 12.9666 12.4805 13.1091C12.4245 13.2568 12.2972 13.4504 12.1699 13.5777C12.0527 13.6999 11.8592 13.8476 11.737 13.9036C11.6199 13.9647 11.3041 14.0666 11.0393 14.1328C10.7745 14.199 10.418 14.255 10.25 14.255C10.0819 14.255 9.68977 14.1939 9.38417 14.1277C9.02262 14.0411 8.6967 13.9291 8.47262 13.8068C8.25873 13.6948 8.01429 13.5013 7.84623 13.3281C7.69855 13.1652 7.57633 13.0124 7.57633 12.9818C7.57633 12.9513 7.42355 13.0531 7.23003 13.2059C7.0416 13.3587 6.76151 13.5522 6.60873 13.6439C6.45595 13.7355 6.18095 13.8679 5.99762 13.9341C5.81429 14.0054 5.49855 14.092 5.29484 14.1328C5.09623 14.1735 4.72957 14.2041 4.48003 14.2041C4.23558 14.2041 3.84346 14.1786 3.6041 14.1531C3.36475 14.1226 2.97771 14.0513 2.73836 13.9953C2.49901 13.9392 2.14253 13.817 1.94901 13.7254C1.7504 13.6337 1.45503 13.4554 1.28697 13.3281C1.11892 13.2008 0.884657 12.9716 0.767527 12.824C0.650397 12.6712 0.482337 12.4013 0.390677 12.2179C0.304097 12.0346 0.186971 11.7138 0.130953 11.505C0.0800268 11.2962 0.0240079 10.8939 0.00872988 10.6138C-0.0116401 10.2624 0.00363788 9.98737 0.0545639 9.72257C0.100397 9.51377 0.176786 9.21327 0.237897 9.06051C0.293915 8.90773 0.451787 8.60727 0.589287 8.39847C0.726787 8.18967 0.996697 7.86375 1.19022 7.68041C1.38373 7.49708 1.64346 7.2781 1.77077 7.19152C1.89808 7.10495 2.18327 6.94708 2.40734 6.82995C2.63142 6.71791 2.99808 6.57023 3.22216 6.49893C3.44623 6.42764 3.8129 6.33088 4.03697 6.28504C4.26105 6.23921 4.76521 6.18828 5.15734 6.17301C5.68188 6.15773 6.04855 6.17301 6.54762 6.2443C6.92447 6.29523 7.23512 6.32578 7.24531 6.31051C7.25549 6.29523 7.27077 5.80634 7.27586 5.2156C7.28605 4.46699 7.27077 4.05449 7.22494 3.8406C7.18929 3.67254 7.09253 3.39754 7.01614 3.22949C6.93975 3.06143 6.80225 2.82717 6.70549 2.71004C6.60873 2.58782 6.41521 2.40958 6.27771 2.31282C6.13512 2.21097 5.8754 2.08365 5.69207 2.02764C5.50873 1.97162 5.24392 1.93088 5.10642 1.93088C4.96383 1.93088 4.71938 1.96652 4.55642 2.00727C4.39855 2.04801 4.17957 2.12949 4.07262 2.18041C3.97077 2.23643 3.83836 2.31282 3.78234 2.35865C3.68049 2.43504 3.68049 2.43504 3.80781 2.52671C3.8791 2.57254 4.00132 2.68458 4.08281 2.77115C4.1592 2.85264 4.2967 3.07162 4.38327 3.25495C4.51058 3.51467 4.54623 3.67254 4.56151 3.96791C4.5717 4.17671 4.55642 4.44152 4.53095 4.55356C4.5004 4.6656 4.39855 4.87439 4.30179 5.0119C4.21012 5.15449 4.00642 5.3531 3.85364 5.46004C3.70086 5.56699 3.43096 5.6994 3.24762 5.75541C3.04392 5.81652 2.76892 5.85217 2.53466 5.85217C2.3004 5.85217 2.0254 5.81652 1.8217 5.75541C1.63836 5.6994 1.39901 5.58736 1.28697 5.50588C1.17494 5.4244 1.01197 5.24615 0.920307 5.10865C0.833727 4.97115 0.726787 4.7318 0.680957 4.57902C0.635117 4.42625 0.599467 4.12578 0.599467 3.91699C0.599467 3.70819 0.630027 3.42301 0.670767 3.28041C0.706417 3.14291 0.808267 2.88828 0.889747 2.72023C0.976327 2.55217 1.17494 2.25171 1.32772 2.05819C1.48559 1.86467 1.75549 1.58458 1.93373 1.44199C2.11197 1.29939 2.39207 1.0906 2.56012 0.983646C2.72818 0.881796 3.02355 0.718836 3.22216 0.627166C3.41568 0.540596 3.73651 0.418376 3.93512 0.352166C4.12864 0.291056 4.55642 0.189206 4.87725 0.123002C5.28466 0.041521 5.65642 0.00587199 6.0842 0.000779994H6.08929ZM5.26429 7.62439C5.15225 7.65495 4.96383 7.75171 4.8416 7.83828C4.72447 7.91977 4.5717 8.06745 4.5004 8.15912C4.4342 8.24569 4.32725 8.45958 4.27123 8.62764C4.18466 8.86699 4.1592 9.05032 4.1592 9.49337C4.16429 9.93647 4.18466 10.13 4.28142 10.4355C4.34762 10.6443 4.47494 10.9346 4.56151 11.0721C4.64808 11.2147 4.8416 11.4439 4.99438 11.5865C5.14207 11.7291 5.3916 11.9073 5.54438 11.9888C5.71753 12.0754 5.9416 12.1416 6.13003 12.1568C6.31846 12.1721 6.53234 12.1568 6.69021 12.111C6.82771 12.0703 6.99577 11.999 7.05688 11.9531L7.17401 11.8615L7.1791 7.81282C6.79716 7.63458 6.5629 7.55819 6.41012 7.53273C6.25734 7.50217 6.10457 7.4818 6.0791 7.4869C6.04855 7.49199 5.90086 7.51236 5.74808 7.53273C5.59531 7.5531 5.37633 7.59384 5.26429 7.62439Z" fill="#006397"/>
</g>
<defs>
<clipPath id="clip0_51969_516">
<rect width="12.57" height="14.25" fill="white"/>
</clipPath>
</defs>
</svg>
