<svg width="19" height="18" viewBox="0 0 19 18" fill="none" xmlns="http://www.w3.org/2000/svg">
<path d="M12.3802 0.746991L13.9355 0.745854C14.3176 0.74573 14.722 0.720549 15.0981 0.793817C15.1716 0.808541 15.2443 0.826657 15.3161 0.848165C15.3879 0.869678 15.4584 0.894481 15.5278 0.922576C15.5971 0.950671 15.6649 0.98193 15.7312 1.01635C15.7974 1.05078 15.8618 1.08821 15.9244 1.12864C15.956 1.14882 15.9871 1.16975 16.0176 1.19143C16.0481 1.21311 16.078 1.23551 16.1074 1.25864C16.1367 1.28177 16.1655 1.30559 16.1937 1.33011C16.2218 1.35463 16.2493 1.37981 16.2762 1.40566C16.3031 1.43151 16.3293 1.45799 16.3548 1.4851C16.3803 1.51222 16.4051 1.53994 16.4292 1.56825C16.4533 1.59657 16.4766 1.62545 16.4993 1.65489C16.5219 1.68434 16.5437 1.71431 16.5648 1.74481C16.5859 1.77531 16.6062 1.80631 16.6257 1.83779C16.6452 1.86928 16.6639 1.90121 16.6818 1.9336C16.6996 1.96599 16.7167 1.99879 16.7329 2.032C16.7491 2.06521 16.7644 2.09879 16.7789 2.13275C16.7934 2.1667 16.807 2.20099 16.8197 2.2356C16.8324 2.27021 16.8443 2.30511 16.8552 2.34029C16.8662 2.37548 16.8763 2.41091 16.8854 2.44658C16.8945 2.48225 16.9028 2.51811 16.91 2.55418C17.0069 3.02802 16.9549 3.81336 16.9559 4.32703C16.9566 4.65132 16.9888 5.00165 16.9487 5.32289C16.9323 5.45431 16.8957 5.56657 16.8186 5.67627C16.6707 5.88662 16.4654 5.96557 16.2185 6.0095C16.0247 6.00533 15.8244 5.94117 15.6777 5.8165C15.648 5.79118 15.6205 5.76374 15.5953 5.73418C15.5701 5.70461 15.5474 5.67329 15.5273 5.64022C15.5072 5.60714 15.4898 5.57273 15.4754 5.53698C15.4609 5.50123 15.4494 5.46459 15.4408 5.42706C15.387 5.20021 15.4118 4.94134 15.4128 4.70884L15.4171 3.6105C15.4178 3.40551 15.4275 3.1957 15.4128 2.99128C15.3922 2.70725 15.2605 2.45521 14.9844 2.33495C14.6624 2.19469 13.2334 2.25494 12.8128 2.25596C12.5861 2.25651 12.3403 2.27273 12.1193 2.21733C12.0044 2.18853 11.9028 2.13227 11.8141 2.05585C11.7955 2.04005 11.7777 2.02337 11.7608 2.00581C11.7438 1.98827 11.7279 1.96993 11.7128 1.95082C11.6978 1.9317 11.6839 1.91189 11.6709 1.8914C11.6579 1.8709 11.6461 1.84983 11.6353 1.82817C11.6245 1.80652 11.6149 1.78439 11.6064 1.76178C11.598 1.73918 11.5907 1.71622 11.5845 1.6929C11.5785 1.66958 11.5736 1.64602 11.57 1.62222C11.5663 1.59843 11.5639 1.57451 11.5627 1.55047C11.5613 1.52534 11.5611 1.5002 11.5623 1.47505C11.5633 1.4499 11.5657 1.42486 11.5694 1.39994C11.573 1.37501 11.5778 1.35032 11.5839 1.32586C11.5901 1.3014 11.5974 1.27729 11.6059 1.25353C11.6145 1.22977 11.6242 1.20648 11.6351 1.18365C11.646 1.16081 11.658 1.13855 11.6712 1.11687C11.6843 1.09518 11.6984 1.07417 11.7137 1.05384C11.729 1.03351 11.7452 1.01396 11.7625 0.995181C11.9327 0.810234 12.1358 0.758448 12.3802 0.746991Z" fill="#006397"/>
<path d="M3.07858 0.747101L4.6395 0.745432C4.91409 0.745209 5.21466 0.722617 5.48553 0.762723C5.62429 0.783272 5.79555 0.832581 5.89975 0.929078C6.06091 1.07833 6.16106 1.26126 6.16146 1.48096C6.16206 1.81182 5.98069 2.0937 5.6533 2.20199C5.431 2.27553 5.17294 2.25564 4.94104 2.2552L3.8039 2.25235C3.50793 2.2516 3.16273 2.2202 2.87579 2.29102C2.74526 2.32324 2.62535 2.38548 2.53012 2.47872C2.4331 2.57372 2.37217 2.69291 2.34054 2.82251C2.28441 3.05249 2.30781 3.31333 2.30819 3.54853L2.30971 4.45895C2.3088 4.85218 2.39618 5.43472 2.11453 5.74986C2.09784 5.76817 2.08028 5.78565 2.06184 5.8023C2.0434 5.81894 2.02417 5.83468 2.00416 5.8495C1.98415 5.86433 1.96344 5.87817 1.94204 5.89103C1.92064 5.9039 1.89865 5.91572 1.87606 5.9265C1.85348 5.93727 1.83041 5.94696 1.80686 5.95555C1.78331 5.96414 1.75938 5.97161 1.73508 5.97793C1.71078 5.98426 1.68623 5.98942 1.66141 5.99342C1.63659 5.99742 1.61164 6.00023 1.58654 6.00187C1.56067 6.00324 1.53479 6.00335 1.50891 6.00222C1.48302 6.00108 1.45726 5.9987 1.43162 5.99506C1.40598 5.99143 1.38059 5.98656 1.35545 5.98046C1.33031 5.97437 1.30554 5.96707 1.28115 5.95857C1.25676 5.95007 1.23286 5.94041 1.20945 5.9296C1.18605 5.91878 1.16326 5.90686 1.14107 5.89383C1.11889 5.8808 1.09742 5.86673 1.07668 5.85162C1.05594 5.83652 1.03602 5.82045 1.01693 5.80341C0.826891 5.63363 0.77553 5.42175 0.766733 5.18058C0.751528 4.76412 0.770217 4.34166 0.768954 3.92459C0.766138 2.99195 0.688067 2.19319 1.39781 1.45672C1.84714 0.990469 2.42888 0.768668 3.07858 0.747101Z" fill="#006397"/>
<path d="M1.40386 12.0115C1.5889 11.9906 1.74905 12.0109 1.91473 12.0971C2.08437 12.1854 2.20294 12.3238 2.26295 12.5021C2.36067 12.7922 2.30803 14.1721 2.30717 14.5742C2.30671 14.7885 2.28666 15.02 2.3538 15.2264C2.42192 15.4357 2.56923 15.6019 2.78032 15.6832C3.02075 15.7759 3.30643 15.7499 3.56087 15.749L4.74447 15.7451C4.97367 15.7444 5.21637 15.7292 5.4435 15.757C5.55653 15.7707 5.66636 15.7983 5.76765 15.85C5.78971 15.861 5.81112 15.8731 5.83189 15.8862C5.85266 15.8993 5.87269 15.9135 5.89198 15.9286C5.91125 15.9438 5.92969 15.9599 5.94727 15.9768C5.96485 15.9938 5.98149 16.0116 5.99719 16.0303C6.01289 16.0489 6.02757 16.0683 6.04122 16.0885C6.05487 16.1086 6.06743 16.1293 6.07889 16.1507C6.09034 16.172 6.10065 16.1939 6.1098 16.2164C6.11894 16.2387 6.12688 16.2615 6.13362 16.2848C6.19047 16.476 6.1709 16.6901 6.06885 16.8639C5.94341 17.0775 5.74857 17.1871 5.51237 17.25C5.13713 17.2924 4.733 17.2637 4.35492 17.264C3.50599 17.2645 2.60716 17.3714 1.85585 16.9073C1.82345 16.8876 1.79157 16.8671 1.76022 16.8458C1.72886 16.8246 1.69807 16.8026 1.66783 16.7799C1.63759 16.7572 1.60795 16.7337 1.57891 16.7096C1.54987 16.6854 1.52146 16.6606 1.49368 16.635C1.4659 16.6095 1.43879 16.5834 1.41234 16.5565C1.38589 16.5297 1.36014 16.5022 1.3351 16.4741C1.31005 16.4461 1.28573 16.4175 1.26214 16.3882C1.23855 16.359 1.21572 16.3292 1.19364 16.2988C1.17157 16.2685 1.15028 16.2376 1.12979 16.2062C1.10928 16.1749 1.08959 16.1431 1.07071 16.1107C1.05183 16.0784 1.03378 16.0457 1.01657 16.0125C0.999354 15.9793 0.982994 15.9457 0.967492 15.9117C0.95199 15.8778 0.937361 15.8434 0.923605 15.8087C0.909849 15.7741 0.896983 15.7391 0.885005 15.7038C0.873032 15.6685 0.861963 15.6329 0.851799 15.5971C0.841636 15.5612 0.83239 15.5251 0.824063 15.4889C0.718329 15.019 0.769211 14.2412 0.768185 13.7331C0.767483 13.3852 0.736566 13.0093 0.781304 12.6647C0.796664 12.5464 0.82937 12.4367 0.896908 12.3363C1.0187 12.1553 1.18894 12.0545 1.40386 12.0115Z" fill="#006397"/>
<path d="M16.8072 12.0138C16.8563 12.0087 16.9057 12.004 16.9551 12.0026C17.1498 11.9971 17.3499 12.0787 17.4889 12.2095C17.6837 12.3929 17.7296 12.6091 17.7315 12.8624L17.7283 14.2012C17.7302 15.1268 17.7897 15.8575 17.0644 16.5744C16.3376 17.2929 15.6012 17.2652 14.6453 17.2646C14.1759 17.2629 13.7066 17.2639 13.2373 17.2677C13.0463 17.2646 12.8649 17.2385 12.6994 17.1392C12.5323 17.039 12.4016 16.8791 12.356 16.6918C12.3072 16.491 12.335 16.2707 12.4505 16.0959C12.5443 15.954 12.6928 15.8414 12.8585 15.7911C13.0763 15.725 13.3253 15.744 13.5507 15.7445L14.7758 15.7484C15.0335 15.7491 15.3249 15.7759 15.5773 15.7212C15.8179 15.6691 16.0186 15.5255 16.1153 15.3016C16.2182 15.0634 16.1926 14.7699 16.1919 14.5163L16.188 13.3306C16.1873 13.106 16.1681 12.8632 16.2046 12.641C16.2231 12.5283 16.2619 12.4206 16.3256 12.3245C16.4427 12.1476 16.5985 12.058 16.8072 12.0138Z" fill="#006397"/>
<path d="M7.61576 4.5042C8.02971 4.47282 8.45967 4.4958 8.87579 4.49563C9.48878 4.49539 10.1062 4.48125 10.7186 4.49855C11.2183 4.51267 11.4008 4.74709 11.6074 5.15187L11.8728 5.67936C11.9112 5.75576 11.9621 5.89235 12.0263 5.94892C12.1408 6.04995 12.6156 5.99853 12.7738 5.99759C13.3238 5.99434 13.7845 6.04481 14.1939 6.44096C14.544 6.77981 14.6472 7.18488 14.6491 7.65281L14.65 10.5933C14.6499 11.0685 14.6984 11.946 14.5941 12.3864C14.5363 12.6305 14.3787 12.878 14.1981 13.0541C13.6472 13.5914 12.9441 13.5176 12.2275 13.5172L10.9131 13.516L7.03024 13.5159L5.98042 13.5169C5.69882 13.5173 5.4053 13.5319 5.1275 13.4802C5.09011 13.4735 5.05301 13.4654 5.01621 13.4561C4.97942 13.4467 4.94301 13.4361 4.907 13.4242C4.87099 13.4123 4.83546 13.3992 4.80042 13.3848C4.76538 13.3704 4.73091 13.3548 4.69703 13.3381C4.66314 13.3212 4.62992 13.3033 4.59736 13.2841C4.56481 13.265 4.533 13.2448 4.50194 13.2234C4.47088 13.202 4.44065 13.1796 4.41125 13.1561C4.38185 13.1327 4.35335 13.1083 4.32576 13.0828C3.9781 12.7598 3.86206 12.3672 3.85365 11.911C3.83486 10.8918 3.85154 9.86905 3.85179 8.84935L3.85223 7.92235C3.85241 7.68559 3.83836 7.43274 3.88464 7.19959C3.93839 6.92887 4.09119 6.65276 4.28772 6.45515C4.87825 5.86141 5.69824 6.00686 6.46719 5.99459C6.55285 5.80019 6.65899 5.60979 6.75524 5.41987C6.84997 5.23284 6.93896 5.02872 7.05792 4.85507C7.20154 4.64547 7.36797 4.55388 7.61576 4.5042ZM8.19594 6.00998C7.96476 6.34984 7.746 7.00429 7.49457 7.26305C7.38438 7.37637 7.24184 7.44949 7.08513 7.4803C6.87259 7.52215 5.63576 7.52445 5.397 7.49686L5.39841 10.3333C5.39839 10.8835 5.41853 11.4415 5.39212 11.9909L10.3223 11.9957L13.1009 11.9949C13.1127 10.5004 13.0769 9.00347 13.1062 7.50953C12.7947 7.50305 12.4832 7.50115 12.1716 7.50382C11.912 7.50467 11.6037 7.53529 11.3516 7.47012C11.2235 7.43701 11.1149 7.37099 11.0232 7.27829C10.7847 7.0372 10.5003 6.34501 10.3211 6.01799C9.61376 5.98553 8.90279 6.03651 8.19594 6.00998Z" fill="#006397"/>
<path d="M9.0131 7.13327C9.05092 7.12986 9.08879 7.12734 9.12674 7.12572C9.16468 7.12414 9.20265 7.12342 9.24064 7.12355C9.27863 7.12373 9.3166 7.12478 9.35455 7.1267C9.39249 7.12867 9.43034 7.13152 9.46811 7.13524C9.50592 7.13897 9.5436 7.14359 9.58114 7.14911C9.61872 7.15458 9.65613 7.16095 9.69335 7.16822C9.73062 7.17545 9.76767 7.18355 9.80449 7.19253C9.84135 7.20155 9.87795 7.2114 9.91427 7.22209C9.95064 7.23282 9.98672 7.24438 10.0225 7.25678C10.0583 7.26917 10.0937 7.28242 10.1288 7.29652C10.164 7.31058 10.1987 7.32545 10.2331 7.34113C10.2675 7.35685 10.3015 7.37336 10.335 7.39066C10.3686 7.40796 10.4018 7.42603 10.4344 7.44486C10.4671 7.46373 10.4993 7.48335 10.531 7.50372C10.5627 7.52408 10.5938 7.54517 10.6245 7.56698C10.6551 7.58879 10.6852 7.61132 10.7148 7.63458C10.7436 7.65762 10.7718 7.68131 10.7994 7.70566C10.8271 7.73005 10.8541 7.75506 10.8805 7.78068C10.9068 7.8063 10.9326 7.83254 10.9577 7.85938C10.9828 7.88623 11.0072 7.91365 11.0309 7.94163C11.0547 7.96966 11.0777 7.99819 11.1 8.02723C11.1223 8.05631 11.1439 8.08589 11.1647 8.11598C11.1855 8.14607 11.2056 8.17664 11.225 8.20769C11.2443 8.2387 11.2629 8.27016 11.2806 8.30209C11.2984 8.33397 11.3153 8.36627 11.3315 8.39899C11.3476 8.43166 11.363 8.4647 11.3775 8.49812C11.3921 8.53158 11.4057 8.56532 11.4186 8.59935C11.4315 8.63343 11.4434 8.66778 11.4546 8.70243C11.4657 8.73702 11.476 8.77189 11.4854 8.80701C11.4948 8.84213 11.5034 8.87746 11.511 8.91297C11.5187 8.94845 11.5254 8.9841 11.5313 9.01992C11.5372 9.05579 11.5422 9.09175 11.5463 9.12779C11.5505 9.16493 11.5537 9.20216 11.556 9.23947C11.5583 9.27678 11.5596 9.31412 11.56 9.35148C11.5603 9.38888 11.5597 9.42624 11.5582 9.46355C11.5566 9.50091 11.5541 9.5382 11.5506 9.57543C11.5472 9.61265 11.5428 9.64977 11.5374 9.68678C11.5321 9.72378 11.5258 9.76064 11.5185 9.79734C11.5113 9.83404 11.5031 9.87054 11.494 9.90685C11.4849 9.94316 11.4748 9.9792 11.4639 10.015C11.4529 10.0508 11.441 10.0863 11.4282 10.1216C11.4154 10.1569 11.4018 10.1918 11.3872 10.2263C11.3726 10.2609 11.3572 10.2951 11.3409 10.3289C11.3245 10.3628 11.3073 10.3962 11.2893 10.4292C11.2713 10.4622 11.2524 10.4947 11.2327 10.5268C11.213 10.5589 11.1925 10.5904 11.1711 10.6215C11.1498 10.6526 11.1277 10.6832 11.1048 10.7132C11.082 10.7432 11.0583 10.7727 11.0339 10.8015C10.6688 11.2367 10.1011 11.5561 9.52341 11.6126C8.92695 11.6704 8.34359 11.5251 7.86145 11.1757C7.83151 11.154 7.80216 11.1315 7.7734 11.1084C7.74459 11.0853 7.71639 11.0615 7.6888 11.037C7.66121 11.0125 7.63425 10.9874 7.60792 10.9616C7.58158 10.9359 7.5559 10.9095 7.53088 10.8825C7.50589 10.8555 7.48159 10.828 7.45796 10.7998C7.43437 10.7717 7.41148 10.743 7.38929 10.7138C7.3671 10.6845 7.34567 10.6548 7.32501 10.6245C7.30431 10.5943 7.28439 10.5636 7.26526 10.5324C7.24613 10.5012 7.22781 10.4696 7.2103 10.4375C7.19275 10.4054 7.176 10.3729 7.16007 10.3401C7.14418 10.3072 7.12912 10.274 7.1149 10.2404C7.10063 10.2068 7.08724 10.1729 7.07472 10.1387C7.06216 10.1044 7.05051 10.0699 7.03975 10.0351C7.02895 10.0004 7.01902 9.96536 7.00997 9.9301C7.00093 9.89485 6.99278 9.8594 6.98553 9.82375C6.97828 9.78814 6.97194 9.75236 6.96649 9.7164C6.96073 9.67909 6.95591 9.64167 6.95204 9.60413C6.94817 9.56656 6.94527 9.52894 6.94333 9.49127C6.94144 9.45357 6.94047 9.41586 6.94043 9.37815C6.94043 9.3404 6.9414 9.30267 6.94333 9.26496C6.94527 9.22729 6.94815 9.18967 6.95198 9.1521C6.95585 9.11456 6.96066 9.07714 6.96642 9.03983C6.97219 9.00251 6.97889 8.96535 6.98654 8.92835C6.9942 8.89138 7.00279 8.85462 7.01234 8.81805C7.02188 8.78143 7.03234 8.74511 7.04373 8.70906C7.05517 8.67297 7.0675 8.63719 7.08073 8.60172C7.09392 8.56624 7.10803 8.53112 7.12307 8.49635C7.1381 8.46157 7.15401 8.42717 7.1708 8.39314C7.18759 8.35911 7.20524 8.32552 7.22374 8.29237C7.24224 8.25921 7.26157 8.22652 7.28173 8.19429C7.3019 8.16205 7.3229 8.13032 7.34473 8.0991C7.36651 8.06792 7.38909 8.03726 7.41245 8.00713C7.8079 7.49735 8.37047 7.22104 9.0131 7.13327ZM9.17589 8.64606C8.96105 8.66643 8.79313 8.73501 8.65242 8.90246C8.52191 9.05789 8.46634 9.26621 8.48957 9.46467C8.49249 9.48871 8.49661 9.51256 8.50192 9.53621C8.50724 9.55981 8.51372 9.58313 8.52137 9.60617C8.52902 9.62921 8.5378 9.65183 8.5477 9.67403C8.5576 9.69624 8.56861 9.71792 8.58072 9.73907C8.59278 9.76022 8.60588 9.78074 8.62001 9.80062C8.63415 9.82055 8.64925 9.83975 8.66532 9.85824C8.68134 9.87672 8.69827 9.89439 8.71609 9.91125C8.73392 9.92816 8.75255 9.94416 8.772 9.95927C8.94248 10.091 9.1264 10.1206 9.33692 10.1183C9.55642 10.0785 9.74885 9.98424 9.87869 9.80207C9.89323 9.78148 9.90666 9.76024 9.919 9.73835C9.93138 9.71645 9.94261 9.694 9.95269 9.67101C9.96277 9.64806 9.97166 9.62467 9.97936 9.60085C9.98706 9.57702 9.99352 9.55287 9.99874 9.52839C10.004 9.50395 10.0079 9.47932 10.0107 9.45448C10.0134 9.42965 10.0149 9.40473 10.0151 9.37973C10.0153 9.35476 10.0142 9.32984 10.0118 9.30497C10.0095 9.28009 10.0059 9.25539 10.001 9.23086C9.99635 9.20704 9.9905 9.18348 9.98348 9.16018C9.97641 9.13692 9.96822 9.11406 9.9589 9.09159C9.94954 9.06908 9.93907 9.0471 9.9275 9.02564C9.91594 9.00413 9.90331 8.98324 9.88963 8.96297C9.87594 8.94269 9.86127 8.92311 9.8456 8.90424C9.82994 8.88536 9.81335 8.86727 9.79584 8.84997C9.77838 8.83267 9.76006 8.81625 9.74088 8.8007C9.72175 8.78516 9.70188 8.77057 9.68127 8.75695C9.52422 8.65473 9.36001 8.63851 9.17589 8.64606Z" fill="#006397"/>
</svg>
