<svg width="14" height="14" viewBox="0 0 14 14" fill="none" xmlns="http://www.w3.org/2000/svg">
<path d="M12.2087 6.99999C12.2087 6.84026 12.2017 6.68749 12.1878 6.52776L13.4795 5.5486C13.7573 5.34026 13.8337 4.95138 13.6601 4.64582L12.3614 2.40276C12.1878 2.09721 11.8128 1.97221 11.4934 2.1111L10.0003 2.74304C9.74339 2.56249 9.47256 2.40276 9.18784 2.27082L8.98645 0.666653C8.94478 0.319431 8.64617 0.055542 8.29895 0.055542H5.70867C5.3545 0.055542 5.05589 0.319431 5.01423 0.666653L4.81284 2.27082C4.52811 2.40276 4.25728 2.56249 4.00034 2.74304L2.50728 2.1111C2.18784 1.97221 1.81284 2.09721 1.63923 2.40276L0.340615 4.65276C0.167004 4.95832 0.243393 5.34026 0.52117 5.55554L1.81284 6.53471C1.79895 6.68749 1.792 6.84026 1.792 6.99999C1.792 7.15971 1.79895 7.31249 1.81284 7.47221L0.52117 8.45138C0.243393 8.65971 0.167004 9.0486 0.340615 9.35415L1.63923 11.5972C1.81284 11.9028 2.18784 12.0278 2.50728 11.8889L4.00034 11.2569C4.25728 11.4375 4.52811 11.5972 4.81284 11.7292L5.01423 13.3333C5.05589 13.6805 5.3545 13.9444 5.70173 13.9444H8.292C8.63922 13.9444 8.93784 13.6805 8.9795 13.3333L9.18089 11.7292C9.46561 11.5972 9.73645 11.4375 9.99339 11.2569L11.4864 11.8889C11.8059 12.0278 12.1809 11.9028 12.3545 11.5972L13.6531 9.35415C13.8267 9.0486 13.7503 8.66665 13.4726 8.45138L12.1809 7.47221C12.2017 7.31249 12.2087 7.15971 12.2087 6.99999ZM7.02811 9.43054C5.68784 9.43054 4.59756 8.34026 4.59756 6.99999C4.59756 5.65971 5.68784 4.56943 7.02811 4.56943C8.36839 4.56943 9.45867 5.65971 9.45867 6.99999C9.45867 8.34026 8.36839 9.43054 7.02811 9.43054Z" fill="#006397"/>
</svg>
