<svg width="16" height="15" viewBox="0 0 16 15" fill="none" xmlns="http://www.w3.org/2000/svg">
<path d="M13.8759 1.21636C13.0318 0.36001 11.6633 0.36001 10.8192 1.21636L2.25008 9.90965C2.19135 9.96923 2.14895 10.0431 2.12681 10.1242L0.999949 14.2514C0.953606 14.4206 1.0007 14.6018 1.12303 14.7261C1.24555 14.8502 1.42416 14.8979 1.59096 14.8511L5.65918 13.7077C5.73911 13.6853 5.81191 13.6423 5.87064 13.5827L14.4396 4.88919C15.2824 4.03228 15.2824 2.64506 14.4396 1.78814L13.8759 1.21636ZM3.29664 10.2264L10.3098 3.1114L12.5716 5.40597L5.55824 12.521L3.29664 10.2264ZM2.84484 11.1461L4.65184 12.9795L2.15233 13.682L2.84484 11.1461ZM13.7604 4.20016L13.251 4.71694L10.989 2.42217L11.4986 1.9054C11.9674 1.42973 12.7277 1.42973 13.1966 1.9054L13.7604 2.47718C14.2285 2.95342 14.2285 3.72411 13.7604 4.20016Z" fill="#006397"/>
<path d="M3.29664 10.2264L10.3098 3.1114L12.5716 5.40597L5.55824 12.521L3.29664 10.2264Z" fill="#006397"/>
</svg>
