<svg width="16" height="15" viewBox="0 0 16 15" fill="none" xmlns="http://www.w3.org/2000/svg">
<path d="M0.5 5.71756V9.05089C0.5 9.50923 0.875 9.88423 1.33333 9.88423H3.83333L6.575 12.6259C7.1 13.1509 8 12.7759 8 12.0342V2.72589C8 1.98423 7.1 1.60923 6.575 2.13423L3.83333 4.88423H1.33333C0.875 4.88423 0.5 5.25923 0.5 5.71756ZM11.75 7.38423C11.75 5.90923 10.9 4.64256 9.66667 4.02589V10.7342C10.9 10.1259 11.75 8.85923 11.75 7.38423ZM9.66667 1.09256V1.25923C9.66667 1.57589 9.875 1.85089 10.1667 1.96756C12.3167 2.82589 13.8333 4.93423 13.8333 7.38423C13.8333 9.83423 12.3167 11.9426 10.1667 12.8009C9.86667 12.9176 9.66667 13.1926 9.66667 13.5092V13.6759C9.66667 14.2009 10.1917 14.5676 10.675 14.3842C13.5 13.3092 15.5 10.5842 15.5 7.38423C15.5 4.18423 13.5 1.45923 10.675 0.384226C10.1917 0.192559 9.66667 0.567559 9.66667 1.09256Z" fill="#006397"/>
</svg>
