<svg width="16" height="15" viewBox="0 0 16 15" fill="none" xmlns="http://www.w3.org/2000/svg">
<g clip-path="url(#clip0_51969_506)">
<path d="M11.3847 1.08276C10.8334 1.08276 10.3848 1.57585 10.3848 2.18186V12.6847C10.3848 13.2909 10.8334 13.784 11.3847 13.784C11.9362 13.784 12.3848 13.2909 12.3848 12.6847V2.18186C12.3848 1.57585 11.9362 1.08276 11.3847 1.08276ZM11.9402 12.6847C11.9402 13.0216 11.6911 13.2955 11.3847 13.2955C11.0783 13.2955 10.8292 13.0216 10.8292 12.6847V2.18186C10.8292 1.84517 11.0783 1.57123 11.3847 1.57123C11.6911 1.57123 11.9402 1.84517 11.9402 2.18186V12.6847Z" fill="#006397"/>
<path d="M11.9402 12.6847C11.9402 13.0216 11.6911 13.2955 11.3847 13.2955C11.0783 13.2955 10.8292 13.0216 10.8292 12.6847V2.18186C10.8292 1.84517 11.0783 1.57123 11.3847 1.57123C11.6911 1.57123 11.9402 1.84517 11.9402 2.18186V12.6847Z" fill="#006397"/>
<path d="M14.1729 1.08276C13.6214 1.08276 13.1729 1.57585 13.1729 2.18186V12.6847C13.1729 13.2909 13.6214 13.784 14.1729 13.784C14.7244 13.784 15.1729 13.2909 15.1729 12.6847V2.18186C15.1729 1.57585 14.7244 1.08276 14.1729 1.08276ZM14.7284 12.6847C14.7284 13.0216 14.4793 13.2955 14.1729 13.2955C13.8664 13.2955 13.6173 13.0216 13.6173 12.6847V2.18186C13.6173 1.84517 13.8664 1.57123 14.1729 1.57123C14.4793 1.57123 14.7284 1.84517 14.7284 2.18186V12.6847Z" fill="#006397"/>
<path d="M14.7284 12.6847C14.7284 13.0216 14.4793 13.2955 14.1729 13.2955C13.8664 13.2955 13.6173 13.0216 13.6173 12.6847V2.18186C13.6173 1.84517 13.8664 1.57123 14.1729 1.57123C14.4793 1.57123 14.7284 1.84517 14.7284 2.18186V12.6847Z" fill="#006397"/>
<path d="M8.52606 6.99363L1.56504 3.177C1.34277 3.05526 1.07758 3.0547 0.855309 3.17574C0.63289 3.29691 0.5 3.51382 0.5 3.75617V11.3893C0.5 11.6318 0.63289 11.8486 0.855013 11.9696C0.966001 12.0298 1.08764 12.06 1.20914 12.06C1.33152 12.06 1.45361 12.0294 1.56504 11.9683L8.52606 8.15185C8.74729 8.03053 8.87915 7.81404 8.87915 7.57253C8.87915 7.33116 8.74714 7.11467 8.52606 6.99363ZM8.26649 7.72948L1.30548 11.546C1.21831 11.5934 1.14225 11.5621 1.11325 11.5463C1.08439 11.5306 1.0172 11.4839 1.0172 11.3893V3.75617C1.0172 3.66169 1.08439 3.61487 1.11339 3.59922C1.13086 3.58971 1.16593 3.57434 1.21017 3.57434C1.23874 3.57434 1.27129 3.58077 1.30548 3.59936L8.26649 7.41613C8.35262 7.46337 8.36194 7.54136 8.36194 7.57267C8.36194 7.60398 8.35262 7.6821 8.26649 7.72948Z" fill="#006397"/>
<path d="M8.26649 7.72948L1.30548 11.546C1.21831 11.5934 1.14225 11.5621 1.11325 11.5463C1.08439 11.5306 1.0172 11.4839 1.0172 11.3893V3.75617C1.0172 3.66169 1.08439 3.61487 1.11339 3.59922C1.13086 3.58971 1.16593 3.57434 1.21017 3.57434C1.23874 3.57434 1.27129 3.58077 1.30548 3.59936L8.26649 7.41613C8.35262 7.46337 8.36194 7.54136 8.36194 7.57267C8.36194 7.60398 8.35262 7.6821 8.26649 7.72948Z" fill="#006397"/>
</g>
<defs>
<clipPath id="clip0_51969_506">
<rect width="15" height="14.1667" fill="white" transform="translate(0.5 0.333374)"/>
</clipPath>
</defs>
</svg>
