<svg width="48" height="48" viewBox="0 0 48 48" fill="none" xmlns="http://www.w3.org/2000/svg">
<g clip-path="url(#clip0_31_9183)">
<path d="M10.3998 2.3998C10.3998 2.82415 10.2312 3.23112 9.93118 3.53118C9.63112 3.83123 9.22415 3.9998 8.7998 3.9998H4.7998C4.58763 3.9998 4.38415 4.08409 4.23412 4.23412C4.08409 4.38415 3.9998 4.58763 3.9998 4.7998V8.7998C3.9998 9.22415 3.83123 9.63112 3.53118 9.93118C3.23112 10.2312 2.82415 10.3998 2.3998 10.3998C1.97546 10.3998 1.56849 10.2312 1.26843 9.93118C0.968376 9.63112 0.799805 9.22415 0.799805 8.7998V3.1998C0.799805 2.56329 1.05266 1.95284 1.50275 1.50275C1.95284 1.05266 2.56329 0.799805 3.1998 0.799805H8.7998C9.22415 0.799805 9.63112 0.968376 9.93118 1.26843C10.2312 1.56849 10.3998 1.97546 10.3998 2.3998Z" fill="#C5C5C5"/>
<path d="M2.3998 37.6003C2.82415 37.6003 3.23112 37.7689 3.53118 38.069C3.83123 38.369 3.9998 38.776 3.9998 39.2003V43.2003C3.9998 43.4125 4.08409 43.616 4.23412 43.766C4.38415 43.9161 4.58763 44.0003 4.7998 44.0003H8.7998C9.22415 44.0003 9.63112 44.1689 9.93118 44.469C10.2312 44.769 10.3998 45.176 10.3998 45.6003C10.3998 46.0247 10.2312 46.4317 9.93118 46.7317C9.63112 47.0318 9.22415 47.2003 8.7998 47.2003H3.1998C2.56329 47.2003 1.95284 46.9475 1.50275 46.4974C1.05266 46.0473 0.799805 45.4369 0.799805 44.8003V39.2003C0.799805 38.776 0.968376 38.369 1.26843 38.069C1.56849 37.7689 1.97546 37.6003 2.3998 37.6003Z" fill="#C5C5C5"/>
<path d="M37.5996 45.6003C37.5996 45.176 37.7682 44.769 38.0682 44.469C38.3683 44.1689 38.7753 44.0003 39.1996 44.0003H43.1996C43.4118 44.0003 43.6153 43.9161 43.7653 43.766C43.9153 43.616 43.9996 43.4125 43.9996 43.2003V39.2003C43.9996 38.776 44.1682 38.369 44.4682 38.069C44.7683 37.7689 45.1753 37.6003 45.5996 37.6003C46.024 37.6003 46.4309 37.7689 46.731 38.069C47.031 38.369 47.1996 38.776 47.1996 39.2003V44.8003C47.1996 45.4369 46.9468 46.0473 46.4967 46.4974C46.0466 46.9475 45.4361 47.2003 44.7996 47.2003H39.1996C38.7753 47.2003 38.3683 47.0318 38.0682 46.7317C37.7682 46.4317 37.5996 46.0247 37.5996 45.6003Z" fill="#C5C5C5"/>
<path d="M45.5996 10.3998C45.1753 10.3998 44.7683 10.2312 44.4682 9.93118C44.1682 9.63112 43.9996 9.22415 43.9996 8.7998V4.7998C43.9996 4.58763 43.9153 4.38415 43.7653 4.23412C43.6153 4.08409 43.4118 3.9998 43.1996 3.9998H39.1996C38.7753 3.9998 38.3683 3.83123 38.0682 3.53118C37.7682 3.23112 37.5996 2.82415 37.5996 2.3998C37.5996 1.97546 37.7682 1.56849 38.0682 1.26843C38.3683 0.968376 38.7753 0.799805 39.1996 0.799805H44.7996C45.4361 0.799805 46.0466 1.05266 46.4967 1.50275C46.9468 1.95284 47.1996 2.56329 47.1996 3.1998V8.7998C47.1996 9.22415 47.031 9.63112 46.731 9.93118C46.4309 10.2312 46.024 10.3998 45.5996 10.3998Z" fill="#C5C5C5"/>
<path d="M45.5998 22.3998H43.1278C42.7506 17.8773 40.7827 13.6349 37.5737 10.4259C34.3648 7.21693 30.1223 5.24908 25.5998 4.87183V2.39983C25.6009 2.18974 25.5597 1.98159 25.4786 1.78779C25.3975 1.59399 25.2782 1.41851 25.1278 1.27183C24.9811 1.12143 24.8057 1.00212 24.6119 0.921022C24.4181 0.839928 24.2099 0.798709 23.9998 0.799827C23.5759 0.801093 23.1696 0.970071 22.8699 1.26985C22.5701 1.56964 22.4011 1.97587 22.3998 2.39983V4.87183C17.8773 5.24908 13.6349 7.21693 10.4259 10.4259C7.21693 13.6349 5.24908 17.8773 4.87183 22.3998H2.39983C2.18974 22.3987 1.98159 22.4399 1.78779 22.521C1.59399 22.6021 1.41851 22.7214 1.27183 22.8718C1.12143 23.0185 1.00212 23.194 0.921022 23.3878C0.839928 23.5816 0.798709 23.7897 0.799827 23.9998C0.801093 24.4238 0.970071 24.83 1.26985 25.1298C1.56964 25.4296 1.97587 25.5986 2.39983 25.5998H4.87183C5.24908 30.1223 7.21693 34.3648 10.4259 37.5737C13.6349 40.7827 17.8773 42.7506 22.3998 43.1278V45.5998C22.403 46.0232 22.5725 46.4283 22.8719 46.7277C23.1713 47.0271 23.5765 47.1967 23.9998 47.1998C24.4238 47.1986 24.83 47.0296 25.1298 46.7298C25.4296 46.43 25.5986 46.0238 25.5998 45.5998V43.1278C30.1223 42.7506 34.3648 40.7827 37.5737 37.5737C40.7827 34.3648 42.7506 30.1223 43.1278 25.5998H45.5998C46.0232 25.5967 46.4283 25.4271 46.7277 25.1277C47.0271 24.8284 47.1967 24.4232 47.1998 23.9998C47.1986 23.5759 47.0296 23.1696 46.7298 22.8699C46.43 22.5701 46.0238 22.4011 45.5998 22.3998ZM37.5998 25.5998H39.9198C39.5473 29.2708 37.9189 32.7007 35.3098 35.3098C32.7007 37.9189 29.2708 39.5473 25.5998 39.9198V37.5998C25.5998 37.1755 25.4313 36.7685 25.1312 36.4685C24.8311 36.1684 24.4242 35.9998 23.9998 35.9998C23.5755 35.9998 23.1685 36.1684 22.8685 36.4685C22.5684 36.7685 22.3998 37.1755 22.3998 37.5998V39.9198C18.7288 39.5473 15.299 37.9189 12.6899 35.3098C10.0808 32.7007 8.45237 29.2708 8.07983 25.5998H10.3998C10.8242 25.5998 11.2311 25.4313 11.5312 25.1312C11.8313 24.8311 11.9998 24.4242 11.9998 23.9998C11.9998 23.5755 11.8313 23.1685 11.5312 22.8685C11.2311 22.5684 10.8242 22.3998 10.3998 22.3998H8.07983C8.45237 18.7288 10.0808 15.299 12.6899 12.6899C15.299 10.0808 18.7288 8.45237 22.3998 8.07983V10.3998C22.3998 10.8242 22.5684 11.2311 22.8685 11.5312C23.1685 11.8313 23.5755 11.9998 23.9998 11.9998C24.4242 11.9998 24.8311 11.8313 25.1312 11.5312C25.4313 11.2311 25.5998 10.8242 25.5998 10.3998V8.07983C29.2708 8.45237 32.7007 10.0808 35.3098 12.6899C37.9189 15.299 39.5473 18.7288 39.9198 22.3998H37.5998C37.1755 22.3998 36.7685 22.5684 36.4685 22.8685C36.1684 23.1685 35.9998 23.5755 35.9998 23.9998C35.9998 24.4242 36.1684 24.8311 36.4685 25.1312C36.7685 25.4313 37.1755 25.5998 37.5998 25.5998Z" fill="#C5C5C5"/>
<path d="M24 30C27.3137 30 30 27.3137 30 24C30 20.6863 27.3137 18 24 18C20.6863 18 18 20.6863 18 24C18 27.3137 20.6863 30 24 30Z" fill="#C5C5C5"/>
</g>
<defs>
<clipPath id="clip0_31_9183">
<rect width="48" height="48" fill="white"/>
</clipPath>
</defs>
</svg>
