<svg width="166" height="60" viewBox="0 0 166 60" fill="none" xmlns="http://www.w3.org/2000/svg">
<path d="M7.39417 24.2573V33.5112L1.17174 29.8827C0.446179 29.4596 0 28.6829 0 27.843V21.5228C0 20.67 0.459808 19.8836 1.20291 19.4652L16.2408 11V19.2694L7.39417 24.2573Z" fill="#92CCFF"/>
<path d="M18.1553 19.2694V11L32.8296 19.5703C33.5544 19.9936 34 20.7699 34 21.6092V28.3921L18.1553 19.2694Z" fill="#92CCFF"/>
<path d="M0 38.1518V31.5913L16.2408 40.3368V49L1.25185 40.3229C0.477063 39.8744 0 39.047 0 38.1518Z" fill="#92CCFF"/>
<path d="M18.1553 49V40.3368L26.8699 35.5458V26.1606L32.7948 29.4874C33.5392 29.9053 34 30.6925 34 31.5462V38.3665C34 39.2611 33.5236 40.088 32.7498 40.5367L18.1553 49Z" fill="#92CCFF"/>
<mask id="path-2-outside-1_51985_9887" maskUnits="userSpaceOnUse" x="48" y="18.5397" width="110" height="25" fill="black">
<rect fill="white" x="48" y="18.5397" width="110" height="25"/>
<path d="M70.2325 31.4841C70.2325 32.41 70.1075 33.285 69.8575 34.1091C69.6168 34.9239 69.2696 35.6647 68.8159 36.3313C68.3714 36.998 67.8298 37.5813 67.1909 38.0813C66.5612 38.5813 65.8575 38.9749 65.0798 39.2619L69.302 42.6091H64.0659L60.5937 39.8175H57.0381C55.8437 39.8175 54.7372 39.6137 53.7187 39.2063C52.7001 38.7897 51.8205 38.211 51.0798 37.4702C50.339 36.7295 49.7557 35.8499 49.3298 34.8313C48.9131 33.8128 48.7048 32.6971 48.7048 31.4841V27.6786C48.7048 26.4749 48.9131 25.3637 49.3298 24.3452C49.7557 23.3175 50.339 22.4378 51.0798 21.7063C51.8205 20.9656 52.7001 20.3869 53.7187 19.9702C54.7372 19.5536 55.8437 19.3452 57.0381 19.3452H61.927C63.1214 19.3452 64.2233 19.5536 65.2325 19.9702C66.2511 20.3869 67.1307 20.9656 67.8714 21.7063C68.6122 22.4378 69.1909 23.3175 69.6075 24.3452C70.0242 25.3637 70.2325 26.4749 70.2325 27.6786V31.4841ZM66.6214 27.6786C66.6214 26.9656 66.5057 26.3221 66.2742 25.748C66.052 25.1647 65.7325 24.6693 65.3159 24.2619C64.9085 23.8452 64.4131 23.5258 63.8298 23.3036C63.2557 23.0721 62.6214 22.9563 61.927 22.9563H57.0381C56.3344 22.9563 55.6909 23.0721 55.1075 23.3036C54.5335 23.5258 54.0381 23.8452 53.6214 24.2619C53.2048 24.6693 52.8807 25.1647 52.6492 25.748C52.427 26.3221 52.3159 26.9656 52.3159 27.6786V31.4841C52.3159 32.1971 52.427 32.8452 52.6492 33.4286C52.8807 34.0026 53.2048 34.498 53.6214 34.9147C54.0381 35.3221 54.5335 35.6415 55.1075 35.873C55.6909 36.0952 56.3344 36.2063 57.0381 36.2063H61.8992C62.6029 36.2063 63.2418 36.0952 63.8159 35.873C64.3992 35.6415 64.8992 35.3221 65.3159 34.9147C65.7325 34.498 66.052 34.0026 66.2742 33.4286C66.5057 32.8452 66.6214 32.1971 66.6214 31.4841V27.6786ZM86.5468 31.2063H73.519V27.9563H86.5468V31.2063ZM110.361 37.998C110.361 38.2573 110.31 38.498 110.208 38.7202C110.116 38.9425 109.986 39.1369 109.819 39.3036C109.662 39.461 109.472 39.586 109.25 39.6786C109.028 39.7712 108.792 39.8175 108.542 39.8175C108.319 39.8175 108.093 39.7758 107.861 39.6925C107.639 39.6091 107.44 39.4749 107.264 39.2897L94.0694 25.5119V39.5397H90.4583V21.1647C90.4583 20.7943 90.5602 20.461 90.7639 20.1647C90.9769 19.8591 91.2454 19.6323 91.5694 19.4841C91.912 19.3452 92.2639 19.3128 92.625 19.3869C92.9861 19.4517 93.2963 19.6184 93.5556 19.8869L106.75 33.6508V19.623H110.361V37.998ZM131.148 31.4008H119.745V27.7619H131.148V31.4008ZM132.773 39.5397H119.745C119.245 39.5397 118.699 39.4517 118.106 39.2758C117.513 39.0999 116.962 38.8128 116.453 38.4147C115.953 38.0073 115.532 37.4841 115.189 36.8452C114.856 36.1971 114.689 35.4054 114.689 34.4702V21.4425C114.689 21.1925 114.736 20.9563 114.828 20.7341C114.921 20.5119 115.046 20.3175 115.203 20.1508C115.37 19.9841 115.564 19.8545 115.787 19.7619C116.009 19.6693 116.249 19.623 116.509 19.623H132.773V23.2341H118.3V34.4702C118.3 34.9425 118.425 35.3036 118.675 35.5536C118.925 35.8036 119.291 35.9286 119.773 35.9286H132.773V39.5397ZM145.573 26.7341L151.656 19.623H156.587L148.017 29.6091L156.531 39.5397H151.629L145.573 32.4841L139.545 39.5397H134.629L143.129 29.6091L134.601 19.623H139.49L145.573 26.7341Z"/>
</mask>
<path d="M70.2325 31.4841C70.2325 32.41 70.1075 33.285 69.8575 34.1091C69.6168 34.9239 69.2696 35.6647 68.8159 36.3313C68.3714 36.998 67.8298 37.5813 67.1909 38.0813C66.5612 38.5813 65.8575 38.9749 65.0798 39.2619L69.302 42.6091H64.0659L60.5937 39.8175H57.0381C55.8437 39.8175 54.7372 39.6137 53.7187 39.2063C52.7001 38.7897 51.8205 38.211 51.0798 37.4702C50.339 36.7295 49.7557 35.8499 49.3298 34.8313C48.9131 33.8128 48.7048 32.6971 48.7048 31.4841V27.6786C48.7048 26.4749 48.9131 25.3637 49.3298 24.3452C49.7557 23.3175 50.339 22.4378 51.0798 21.7063C51.8205 20.9656 52.7001 20.3869 53.7187 19.9702C54.7372 19.5536 55.8437 19.3452 57.0381 19.3452H61.927C63.1214 19.3452 64.2233 19.5536 65.2325 19.9702C66.2511 20.3869 67.1307 20.9656 67.8714 21.7063C68.6122 22.4378 69.1909 23.3175 69.6075 24.3452C70.0242 25.3637 70.2325 26.4749 70.2325 27.6786V31.4841ZM66.6214 27.6786C66.6214 26.9656 66.5057 26.3221 66.2742 25.748C66.052 25.1647 65.7325 24.6693 65.3159 24.2619C64.9085 23.8452 64.4131 23.5258 63.8298 23.3036C63.2557 23.0721 62.6214 22.9563 61.927 22.9563H57.0381C56.3344 22.9563 55.6909 23.0721 55.1075 23.3036C54.5335 23.5258 54.0381 23.8452 53.6214 24.2619C53.2048 24.6693 52.8807 25.1647 52.6492 25.748C52.427 26.3221 52.3159 26.9656 52.3159 27.6786V31.4841C52.3159 32.1971 52.427 32.8452 52.6492 33.4286C52.8807 34.0026 53.2048 34.498 53.6214 34.9147C54.0381 35.3221 54.5335 35.6415 55.1075 35.873C55.6909 36.0952 56.3344 36.2063 57.0381 36.2063H61.8992C62.6029 36.2063 63.2418 36.0952 63.8159 35.873C64.3992 35.6415 64.8992 35.3221 65.3159 34.9147C65.7325 34.498 66.052 34.0026 66.2742 33.4286C66.5057 32.8452 66.6214 32.1971 66.6214 31.4841V27.6786ZM86.5468 31.2063H73.519V27.9563H86.5468V31.2063ZM110.361 37.998C110.361 38.2573 110.31 38.498 110.208 38.7202C110.116 38.9425 109.986 39.1369 109.819 39.3036C109.662 39.461 109.472 39.586 109.25 39.6786C109.028 39.7712 108.792 39.8175 108.542 39.8175C108.319 39.8175 108.093 39.7758 107.861 39.6925C107.639 39.6091 107.44 39.4749 107.264 39.2897L94.0694 25.5119V39.5397H90.4583V21.1647C90.4583 20.7943 90.5602 20.461 90.7639 20.1647C90.9769 19.8591 91.2454 19.6323 91.5694 19.4841C91.912 19.3452 92.2639 19.3128 92.625 19.3869C92.9861 19.4517 93.2963 19.6184 93.5556 19.8869L106.75 33.6508V19.623H110.361V37.998ZM131.148 31.4008H119.745V27.7619H131.148V31.4008ZM132.773 39.5397H119.745C119.245 39.5397 118.699 39.4517 118.106 39.2758C117.513 39.0999 116.962 38.8128 116.453 38.4147C115.953 38.0073 115.532 37.4841 115.189 36.8452C114.856 36.1971 114.689 35.4054 114.689 34.4702V21.4425C114.689 21.1925 114.736 20.9563 114.828 20.7341C114.921 20.5119 115.046 20.3175 115.203 20.1508C115.37 19.9841 115.564 19.8545 115.787 19.7619C116.009 19.6693 116.249 19.623 116.509 19.623H132.773V23.2341H118.3V34.4702C118.3 34.9425 118.425 35.3036 118.675 35.5536C118.925 35.8036 119.291 35.9286 119.773 35.9286H132.773V39.5397ZM145.573 26.7341L151.656 19.623H156.587L148.017 29.6091L156.531 39.5397H151.629L145.573 32.4841L139.545 39.5397H134.629L143.129 29.6091L134.601 19.623H139.49L145.573 26.7341Z" fill="#92CCFF"/>
<path d="M69.8575 34.1091L69.5705 34.022L69.5698 34.0241L69.8575 34.1091ZM68.8159 36.3313L68.5678 36.1625L68.5663 36.1649L68.8159 36.3313ZM67.1909 38.0813L67.006 37.8451L67.0043 37.8464L67.1909 38.0813ZM65.0798 39.2619L64.9759 38.9804L64.475 39.1653L64.8934 39.497L65.0798 39.2619ZM69.302 42.6091V42.9091H70.1633L69.4884 42.374L69.302 42.6091ZM64.0659 42.6091L63.8779 42.8429L63.9602 42.9091H64.0659V42.6091ZM60.5937 39.8175L60.7816 39.5836L60.6993 39.5175H60.5937V39.8175ZM53.7187 39.2063L53.6051 39.484L53.6072 39.4849L53.7187 39.2063ZM49.3298 34.8313L49.0521 34.9449L49.053 34.9471L49.3298 34.8313ZM49.3298 24.3452L49.0526 24.2304L49.0521 24.2316L49.3298 24.3452ZM51.0798 21.7063L51.2906 21.9198L51.2919 21.9185L51.0798 21.7063ZM65.2325 19.9702L65.1181 20.2475L65.119 20.2479L65.2325 19.9702ZM67.8714 21.7063L67.6593 21.9185L67.6606 21.9198L67.8714 21.7063ZM69.6075 24.3452L69.3295 24.4579L69.3299 24.4588L69.6075 24.3452ZM66.2742 25.748L65.9938 25.8548L65.996 25.8602L66.2742 25.748ZM65.3159 24.2619L65.1013 24.4717L65.1061 24.4764L65.3159 24.2619ZM63.8298 23.3036L63.7176 23.5818L63.723 23.5839L63.8298 23.3036ZM55.1075 23.3036L55.2158 23.5833L55.2182 23.5824L55.1075 23.3036ZM53.6214 24.2619L53.8312 24.4764L53.8336 24.474L53.6214 24.2619ZM52.6492 25.748L52.3703 25.6373L52.3694 25.6397L52.6492 25.748ZM52.6492 33.4286L52.3688 33.5354L52.371 33.5408L52.6492 33.4286ZM53.6214 34.9147L53.4093 35.1268L53.4117 35.1292L53.6214 34.9147ZM55.1075 35.873L54.9953 36.1513L55.0007 36.1534L55.1075 35.873ZM63.8159 35.873L63.9242 36.1528L63.9265 36.1519L63.8159 35.873ZM65.3159 34.9147L65.5256 35.1292L65.528 35.1268L65.3159 34.9147ZM66.2742 33.4286L65.9953 33.3179L65.9944 33.3203L66.2742 33.4286ZM69.9325 31.4841C69.9325 32.3827 69.8113 33.2282 69.5705 34.022L70.1446 34.1962C70.4038 33.3419 70.5325 32.4373 70.5325 31.4841H69.9325ZM69.5698 34.0241C69.3374 34.8107 69.0032 35.5229 68.5679 36.1626L69.0639 36.5001C69.536 35.8064 69.8962 35.0371 70.1452 34.1941L69.5698 34.0241ZM68.5663 36.1649C68.1398 36.8047 67.62 37.3645 67.006 37.8451L67.3758 38.3176C68.0395 37.7982 68.6031 37.1913 69.0655 36.4977L68.5663 36.1649ZM67.0043 37.8464C66.4004 38.326 65.7248 38.7041 64.9759 38.9804L65.1836 39.5433C65.9903 39.2456 66.7221 38.8367 67.3774 38.3163L67.0043 37.8464ZM64.8934 39.497L69.1156 42.8442L69.4884 42.374L65.2661 39.0268L64.8934 39.497ZM69.302 42.3091H64.0659V42.9091H69.302V42.3091ZM64.2539 42.3753L60.7816 39.5836L60.4057 40.0513L63.8779 42.8429L64.2539 42.3753ZM60.5937 39.5175H57.0381V40.1175H60.5937V39.5175ZM57.0381 39.5175C55.8784 39.5175 54.8101 39.3198 53.8301 38.9278L53.6072 39.4849C54.6642 39.9077 55.8089 40.1175 57.0381 40.1175V39.5175ZM53.8322 38.9287C52.8487 38.5263 52.0031 37.9693 51.2919 37.2581L50.8676 37.6824C51.638 38.4527 52.5516 39.053 53.6051 39.484L53.8322 38.9287ZM51.2919 37.2581C50.5802 36.5464 50.0182 35.7001 49.6065 34.7156L49.053 34.9471C49.4932 35.9997 50.0978 36.9125 50.8676 37.6824L51.2919 37.2581ZM49.6074 34.7177C49.2069 33.7388 49.0048 32.6621 49.0048 31.4841H48.4048C48.4048 32.732 48.6192 33.8868 49.0521 34.9449L49.6074 34.7177ZM49.0048 31.4841V27.6786H48.4048V31.4841H49.0048ZM49.0048 27.6786C49.0048 26.5101 49.2068 25.438 49.6074 24.4588L49.0521 24.2316C48.6194 25.2895 48.4048 26.4396 48.4048 27.6786H49.0048ZM49.6069 24.4601C50.0186 23.4667 50.5802 22.6213 51.2906 21.9198L50.869 21.4929C50.0978 22.2544 49.4928 23.1682 49.0526 24.2304L49.6069 24.4601ZM51.2919 21.9185C52.0031 21.2073 52.8487 20.6502 53.8322 20.2479L53.6051 19.6926C52.5516 20.1235 51.638 20.7239 50.8676 21.4942L51.2919 21.9185ZM53.8322 20.2479C54.8117 19.8472 55.8793 19.6452 57.0381 19.6452V19.0452C55.808 19.0452 54.6626 19.2599 53.6051 19.6926L53.8322 20.2479ZM57.0381 19.6452H61.927V19.0452H57.0381V19.6452ZM61.927 19.6452C63.0859 19.6452 64.1484 19.8472 65.1181 20.2475L65.347 19.6929C64.2982 19.2599 63.157 19.0452 61.927 19.0452V19.6452ZM65.119 20.2479C66.1025 20.6502 66.9481 21.2073 67.6593 21.9185L68.0836 21.4942C67.3132 20.7239 66.3996 20.1235 65.3461 19.6926L65.119 20.2479ZM67.6606 21.9198C68.3705 22.6208 68.9272 23.4655 69.3295 24.4579L69.8856 24.2325C69.4546 23.1694 68.8539 22.2549 68.0822 21.4929L67.6606 21.9198ZM69.3299 24.4588C69.7305 25.438 69.9325 26.5101 69.9325 27.6786H70.5325C70.5325 26.4396 70.318 25.2895 69.8852 24.2316L69.3299 24.4588ZM69.9325 27.6786V31.4841H70.5325V27.6786H69.9325ZM66.9214 27.6786C66.9214 26.9329 66.8003 26.2505 66.5524 25.6358L65.996 25.8602C66.2111 26.3936 66.3214 26.9983 66.3214 27.6786H66.9214ZM66.5546 25.6412C66.318 25.0202 65.9755 24.4873 65.5256 24.0474L65.1061 24.4764C65.4896 24.8513 65.786 25.3091 65.9939 25.8548L66.5546 25.6412ZM65.5304 24.0522C65.0905 23.6023 64.5575 23.2598 63.9366 23.0232L63.723 23.5839C64.2686 23.7918 64.7265 24.0882 65.1014 24.4716L65.5304 24.0522ZM63.942 23.0253C63.3281 22.7778 62.6552 22.6563 61.927 22.6563V23.2563C62.5877 23.2563 63.1832 23.3663 63.7176 23.5818L63.942 23.0253ZM61.927 22.6563H57.0381V23.2563H61.927V22.6563ZM57.0381 22.6563C56.3011 22.6563 55.6195 22.7777 54.9969 23.0247L55.2182 23.5824C55.7623 23.3665 56.3677 23.2563 57.0381 23.2563V22.6563ZM54.9992 23.0238C54.388 23.2604 53.8568 23.6023 53.4093 24.0498L53.8336 24.474C54.2194 24.0882 54.6789 23.7912 55.2158 23.5833L54.9992 23.0238ZM53.4117 24.0474C52.9627 24.4864 52.6161 25.018 52.3704 25.6374L52.9281 25.8587C53.1452 25.3114 53.4468 24.8522 53.8312 24.4764L53.4117 24.0474ZM52.3694 25.6397C52.1319 26.2533 52.0159 26.9343 52.0159 27.6786H52.6159C52.6159 26.9969 52.7221 26.3908 52.929 25.8563L52.3694 25.6397ZM52.0159 27.6786V31.4841H52.6159V27.6786H52.0159ZM52.0159 31.4841C52.0159 32.2284 52.1319 32.9134 52.3689 33.5354L52.9296 33.3218C52.722 32.777 52.6159 32.1657 52.6159 31.4841H52.0159ZM52.371 33.5408C52.6168 34.1503 52.9627 34.6802 53.4093 35.1268L53.8336 34.7025C53.4469 34.3158 53.1446 33.8549 52.9274 33.3164L52.371 33.5408ZM53.4117 35.1292C53.8581 35.5657 54.3872 35.906 54.9953 36.1512L55.2197 35.5948C54.6797 35.377 54.2181 35.0785 53.8312 34.7002L53.4117 35.1292ZM55.0007 36.1534C55.6222 36.3901 56.3025 36.5063 57.0381 36.5063V35.9063C56.3663 35.9063 55.7595 35.8003 55.2143 35.5927L55.0007 36.1534ZM57.0381 36.5063H61.8992V35.9063H57.0381V36.5063ZM61.8992 36.5063C62.6347 36.5063 63.311 36.3901 63.9242 36.1528L63.7076 35.5932C63.1726 35.8003 62.5711 35.9063 61.8992 35.9063V36.5063ZM63.9265 36.1519C64.544 35.9068 65.0784 35.5665 65.5256 35.1292L65.1061 34.7002C64.72 35.0777 64.2545 35.3762 63.7052 35.5942L63.9265 36.1519ZM65.528 35.1268C65.9755 34.6793 66.3174 34.1481 66.554 33.5369L65.9944 33.3203C65.7866 33.8572 65.4896 34.3167 65.1037 34.7025L65.528 35.1268ZM66.5531 33.5392C66.8003 32.9162 66.9214 32.2299 66.9214 31.4841H66.3214C66.3214 32.1643 66.2111 32.7743 65.9954 33.3179L66.5531 33.5392ZM66.9214 31.4841V27.6786H66.3214V31.4841H66.9214ZM86.5468 31.2063V31.5063H86.8468V31.2063H86.5468ZM73.519 31.2063H73.219V31.5063H73.519V31.2063ZM73.519 27.9563V27.6563H73.219V27.9563H73.519ZM86.5468 27.9563H86.8468V27.6563H86.5468V27.9563ZM86.5468 30.9063H73.519V31.5063H86.5468V30.9063ZM73.819 31.2063V27.9563H73.219V31.2063H73.819ZM73.519 28.2563H86.5468V27.6563H73.519V28.2563ZM86.2468 27.9563V31.2063H86.8468V27.9563H86.2468ZM110.208 38.7202L109.935 38.5952L109.931 38.6048L110.208 38.7202ZM107.861 39.6925L107.756 39.9734L107.759 39.9747L107.861 39.6925ZM107.264 39.2897L107.481 39.083L107.481 39.0822L107.264 39.2897ZM94.0694 25.5119L94.2861 25.3044L93.7694 24.7649V25.5119H94.0694ZM94.0694 39.5397V39.8397H94.3694V39.5397H94.0694ZM90.4583 39.5397H90.1583V39.8397H90.4583V39.5397ZM90.7639 20.1647L90.5178 19.9931L90.5167 19.9947L90.7639 20.1647ZM91.5694 19.4841L91.4566 19.2058L91.4447 19.2113L91.5694 19.4841ZM92.625 19.3869L92.5647 19.6809L92.572 19.6822L92.625 19.3869ZM93.5556 19.8869L93.7721 19.6793L93.7714 19.6785L93.5556 19.8869ZM106.75 33.6508L106.533 33.8584L107.05 34.3972V33.6508H106.75ZM106.75 19.623V19.323H106.45V19.623H106.75ZM110.361 19.623H110.661V19.323H110.361V19.623ZM110.061 37.998C110.061 38.2168 110.018 38.4146 109.936 38.5952L110.481 38.8452C110.602 38.5814 110.661 38.2977 110.661 37.998H110.061ZM109.931 38.6048C109.854 38.7917 109.746 38.9531 109.607 39.0914L110.032 39.5157C110.227 39.3207 110.378 39.0932 110.485 38.8356L109.931 38.6048ZM109.607 39.0914C109.48 39.2189 109.324 39.3229 109.135 39.4016L109.365 39.9555C109.621 39.8491 109.844 39.703 110.032 39.5157L109.607 39.0914ZM109.135 39.4016C108.95 39.4784 108.754 39.5175 108.542 39.5175V40.1175C108.83 40.1175 109.105 40.0639 109.365 39.9555L109.135 39.4016ZM108.542 39.5175C108.358 39.5175 108.165 39.483 107.963 39.4102L107.759 39.9747C108.02 40.0685 108.281 40.1175 108.542 40.1175V39.5175ZM107.966 39.4116C107.79 39.3454 107.628 39.2379 107.481 39.083L107.046 39.4963C107.251 39.7119 107.488 39.8729 107.756 39.9733L107.966 39.4116ZM107.481 39.0822L94.2861 25.3044L93.8528 25.7194L107.047 39.4972L107.481 39.0822ZM93.7694 25.5119V39.5397H94.3694V25.5119H93.7694ZM94.0694 39.2397H90.4583V39.8397H94.0694V39.2397ZM90.7583 39.5397V21.1647H90.1583V39.5397H90.7583ZM90.7583 21.1647C90.7583 20.8531 90.8429 20.5793 91.0111 20.3346L90.5167 19.9947C90.2775 20.3426 90.1583 20.7356 90.1583 21.1647H90.7583ZM91.01 20.3362C91.1937 20.0726 91.4211 19.8818 91.6942 19.757L91.4447 19.2113C91.0696 19.3828 90.76 19.6456 90.5178 19.9931L91.01 20.3362ZM91.6822 19.7621C91.9701 19.6454 92.2618 19.6186 92.5647 19.6808L92.6853 19.093C92.266 19.007 91.854 19.045 91.4567 19.2061L91.6822 19.7621ZM92.572 19.6822C92.8699 19.7356 93.1235 19.8713 93.3397 20.0953L93.7714 19.6785C93.4691 19.3655 93.1023 19.1678 92.678 19.0916L92.572 19.6822ZM93.339 20.0945L106.533 33.8584L106.967 33.4432L93.7721 19.6793L93.339 20.0945ZM107.05 33.6508V19.623H106.45V33.6508H107.05ZM106.75 19.923H110.361V19.323H106.75V19.923ZM110.061 19.623V37.998H110.661V19.623H110.061ZM131.148 31.4008V31.7008H131.448V31.4008H131.148ZM119.745 31.4008H119.445V31.7008H119.745V31.4008ZM119.745 27.7619V27.4619H119.445V27.7619H119.745ZM131.148 27.7619H131.448V27.4619H131.148V27.7619ZM132.773 39.5397V39.8397H133.073V39.5397H132.773ZM116.453 38.4147L116.264 38.6473L116.268 38.651L116.453 38.4147ZM115.189 36.8452L114.922 36.9825L114.925 36.987L115.189 36.8452ZM115.203 20.1508L114.991 19.9386L114.985 19.9448L115.203 20.1508ZM132.773 19.623H133.073V19.323H132.773V19.623ZM132.773 23.2341V23.5341H133.073V23.2341H132.773ZM118.3 23.2341V22.9341H118V23.2341H118.3ZM132.773 35.9286H133.073V35.6286H132.773V35.9286ZM131.148 31.1008H119.745V31.7008H131.148V31.1008ZM120.045 31.4008V27.7619H119.445V31.4008H120.045ZM119.745 28.0619H131.148V27.4619H119.745V28.0619ZM130.848 27.7619V31.4008H131.448V27.7619H130.848ZM132.773 39.2397H119.745V39.8397H132.773V39.2397ZM119.745 39.2397C119.28 39.2397 118.762 39.1577 118.191 38.9882L118.021 39.5634C118.635 39.7457 119.21 39.8397 119.745 39.8397V39.2397ZM118.191 38.9882C117.636 38.8235 117.119 38.5544 116.638 38.1783L116.268 38.651C116.806 39.0713 117.39 39.3763 118.021 39.5634L118.191 38.9882ZM116.643 38.1821C116.177 37.8026 115.78 37.3118 115.454 36.7035L114.925 36.987C115.284 37.6565 115.729 38.2119 116.264 38.6472L116.643 38.1821ZM115.456 36.708C115.15 36.1126 114.989 35.3708 114.989 34.4702H114.389C114.389 35.44 114.562 36.2815 114.923 36.9824L115.456 36.708ZM114.989 34.4702V21.4425H114.389V34.4702H114.989ZM114.989 21.4425C114.989 21.2305 115.028 21.0338 115.105 20.8495L114.551 20.6187C114.443 20.8789 114.389 21.1544 114.389 21.4425H114.989ZM115.105 20.8495C115.184 20.6591 115.29 20.4957 115.421 20.3568L114.985 19.9448C114.802 20.1392 114.657 20.3647 114.551 20.6187L115.105 20.8495ZM115.415 20.3629C115.554 20.2246 115.715 20.1167 115.902 20.0388L115.671 19.485C115.414 19.5923 115.186 19.7437 114.991 19.9387L115.415 20.3629ZM115.902 20.0388C116.085 19.9626 116.286 19.923 116.509 19.923V19.323C116.213 19.323 115.933 19.376 115.671 19.485L115.902 20.0388ZM116.509 19.923H132.773V19.323H116.509V19.923ZM132.473 19.623V23.2341H133.073V19.623H132.473ZM132.773 22.9341H118.3V23.5341H132.773V22.9341ZM118 23.2341V34.4702H118.6V23.2341H118ZM118 34.4702C118 34.9944 118.14 35.4425 118.463 35.7657L118.888 35.3414C118.711 35.1646 118.6 34.8905 118.6 34.4702H118ZM118.463 35.7657C118.787 36.0899 119.241 36.2286 119.773 36.2286V35.6286C119.341 35.6286 119.063 35.5173 118.888 35.3414L118.463 35.7657ZM119.773 36.2286H132.773V35.6286H119.773V36.2286ZM132.473 35.9286V39.5397H133.073V35.9286H132.473ZM145.573 26.7341L145.345 26.9291L145.573 27.1956L145.801 26.9291L145.573 26.7341ZM151.656 19.623V19.323H151.518L151.428 19.428L151.656 19.623ZM156.587 19.623L156.815 19.8184L157.24 19.323H156.587V19.623ZM148.017 29.6091L147.79 29.4137L147.622 29.609L147.79 29.8044L148.017 29.6091ZM156.531 39.5397V39.8397H157.184L156.759 39.3444L156.531 39.5397ZM151.629 39.5397L151.401 39.7351L151.491 39.8397H151.629V39.5397ZM145.573 32.4841L145.801 32.2887L145.572 32.0229L145.345 32.2892L145.573 32.4841ZM139.545 39.5397V39.8397H139.684L139.773 39.7345L139.545 39.5397ZM134.629 39.5397L134.401 39.3446L133.977 39.8397H134.629V39.5397ZM143.129 29.6091L143.356 29.8042L143.523 29.6093L143.357 29.4143L143.129 29.6091ZM134.601 19.623V19.323H133.95L134.373 19.8178L134.601 19.623ZM139.49 19.623L139.718 19.428L139.628 19.323H139.49V19.623ZM145.801 26.9291L151.884 19.818L151.428 19.428L145.345 26.5391L145.801 26.9291ZM151.656 19.923H156.587V19.323H151.656V19.923ZM156.359 19.4276L147.79 29.4137L148.245 29.8045L156.815 19.8184L156.359 19.4276ZM147.79 29.8044L156.304 39.7349L156.759 39.3444L148.245 29.4139L147.79 29.8044ZM156.531 39.2397H151.629V39.8397H156.531V39.2397ZM151.856 39.3443L145.801 32.2887L145.345 32.6795L151.401 39.7351L151.856 39.3443ZM145.345 32.2892L139.317 39.3448L139.773 39.7345L145.801 32.679L145.345 32.2892ZM139.545 39.2397H134.629V39.8397H139.545V39.2397ZM134.856 39.7348L143.356 29.8042L142.901 29.414L134.401 39.3446L134.856 39.7348ZM143.357 29.4143L134.829 19.4282L134.373 19.8178L142.9 29.8039L143.357 29.4143ZM134.601 19.923H139.49V19.323H134.601V19.923ZM139.262 19.818L145.345 26.9291L145.801 26.5391L139.718 19.428L139.262 19.818Z" fill="#92CCFF" mask="url(#path-2-outside-1_51985_9887)"/>
</svg>
